<svg id="Group_1320" data-name="Group 1320" xmlns="http://www.w3.org/2000/svg" width="23" height="23" viewBox="0 0 23 23">
  <path id="Path_2230" data-name="Path 2230" d="M-193.24-425.885a7.2,7.2,0,0,0,1.544,2.393,6.834,6.834,0,0,0,8.159,1.188c.052-.028.107-.052.161-.078l3.735,3.044a10.3,10.3,0,0,1-2.508,1.548,11.2,11.2,0,0,1-3.737.954c-.036,0-.076,0-.092.042h-1.752c-.023-.055-.073-.041-.115-.045a11.351,11.351,0,0,1-6.18-2.487,11.039,11.039,0,0,1-2.927-3.526Z" transform="translate(198.329 439.795)" fill="#28b446"/>
  <path id="Path_2231" data-name="Path 2231" d="M-195.659-439.37l-3.712,3.033a11.158,11.158,0,0,1-1.247-3.693,3.466,3.466,0,0,0-.13-.8v-1.841a4.627,4.627,0,0,0,.13-.849,10.96,10.96,0,0,1,1.162-3.525q.513.415,1.027.829l2.707,2.2a7.945,7.945,0,0,0-.36,2.038A7.371,7.371,0,0,0-195.659-439.37Z" transform="translate(200.748 453.277)" fill="#fbbb01"/>
  <path id="Path_2232" data-name="Path 2232" d="M-161.419-427.351l-3.735-3.044a7.25,7.25,0,0,0,2.087-1.91,7.924,7.924,0,0,0,.778-1.386c.079-.175.051-.226-.15-.225-1.87.006-3.741,0-5.611,0-.3,0-.3,0-.3-.3,0-1.339,0-2.678,0-4.017,0-.17.037-.23.221-.23q5.308.009,10.616,0c.161,0,.212.047.237.208a11.366,11.366,0,0,1-2.536,9.343A9.176,9.176,0,0,1-161.419-427.351Z" transform="translate(180.118 447.808)" fill="#518ef8"/>
  <path id="Path_2233" data-name="Path 2233" d="M-193.452-454.949l-2.707-2.2c-.341-.278-.685-.553-1.027-.829a10.271,10.271,0,0,1,1.793-2.562,11.192,11.192,0,0,1,6.866-3.556,11.313,11.313,0,0,1,8.724,2.405c.138.107.147.152,0,.267q-1.718,1.39-3.422,2.8a.226.226,0,0,1-.309.023,6.831,6.831,0,0,0-9.86,3.512C-193.408-455.043-193.431-455-193.452-454.949Z" transform="translate(198.478 464.206)" fill="#f14336"/>
</svg>
